<?xml version="1.0" encoding="us-ascii" standalone="no"?><svg xmlns="http://www.w3.org/2000/svg" xmlns:xlink="http://www.w3.org/1999/xlink" contentStyleType="text/css" height="813px" preserveAspectRatio="none" style="width:694px;height:813px;background:#FFFFFF;" version="1.1" viewBox="0 0 694 813" width="694px" zoomAndPan="magnify"><defs/><g><rect fill="#FFFFFF" height="620.3642" style="stroke:#181818;stroke-width:1.0;" width="10" x="265" y="100.0679"/><rect fill="#FFFFFF" height="31.706" style="stroke:#181818;stroke-width:1.0;" width="10" x="630" y="175.8419"/><rect fill="#FFFFFF" height="43.559" style="stroke:#181818;stroke-width:1.0;" width="10" x="630" y="277.8129"/><rect fill="#FFFFFF" height="14" style="stroke:#181818;stroke-width:1.0;" width="10" x="630" y="353.0779"/><rect fill="#FFFFFF" height="43.559" style="stroke:#181818;stroke-width:1.0;" width="10" x="630" y="412.637"/><rect fill="#FFFFFF" height="25.853" style="stroke:#181818;stroke-width:1.0;" width="10" x="630" y="526.461"/><rect fill="#FFFFFF" height="14" style="stroke:#181818;stroke-width:1.0;" width="10" x="630" y="584.0201"/><rect fill="#FFFFFF" height="17" style="stroke:#181818;stroke-width:1.0;" width="10" x="630" y="634.7261"/><rect fill="#FFFFFF" height="14" style="stroke:#181818;stroke-width:1.0;" width="10" x="630" y="683.4321"/><rect fill="none" height="489.8842" style="stroke:#000000;stroke-width:1.5;" width="677" x="10" y="222.5479"/><rect fill="none" height="234.2361" style="stroke:#000000;stroke-width:1.5;" width="657" x="20" y="471.196"/><line style="stroke:#181818;stroke-width:0.5;stroke-dasharray:5.0,5.0;" x1="156" x2="156" y1="84.0679" y2="729.4321"/><line style="stroke:#181818;stroke-width:0.5;stroke-dasharray:5.0,5.0;" x1="270" x2="270" y1="84.0679" y2="729.4321"/><line style="stroke:#181818;stroke-width:0.5;stroke-dasharray:5.0,5.0;" x1="526" x2="526" y1="140.1019" y2="729.4321"/><line style="stroke:#181818;stroke-width:0.5;stroke-dasharray:5.0,5.0;" x1="635" x2="635" y1="84.0679" y2="729.4321"/><text fill="#000000" font-family="sans-serif" font-size="14" lengthAdjust="spacing" textLength="31" x="138" y="79.9659">User</text><ellipse cx="156.5" cy="13.5" fill="#E2E2F0" rx="8" ry="8" style="stroke:#181818;stroke-width:0.5;"/><path d="M156.5,21.5 L156.5,48.5 M143.5,29.5 L169.5,29.5 M156.5,48.5 L143.5,63.5 M156.5,48.5 L169.5,63.5 " fill="none" style="stroke:#181818;stroke-width:0.5;"/><text fill="#000000" font-family="sans-serif" font-size="14" lengthAdjust="spacing" textLength="31" x="138" y="743.398">User</text><ellipse cx="156.5" cy="756" fill="#E2E2F0" rx="8" ry="8" style="stroke:#181818;stroke-width:0.5;"/><path d="M156.5,764 L156.5,791 M143.5,772 L169.5,772 M156.5,791 L143.5,806 M156.5,791 L169.5,806 " fill="none" style="stroke:#181818;stroke-width:0.5;"/><rect fill="#E2E2F0" height="33.0679" rx="2.5" ry="2.5" style="stroke:#181818;stroke-width:0.5;" width="170" x="185" y="50"/><text fill="#000000" font-family="sans-serif" font-size="14" lengthAdjust="spacing" textLength="156" x="192" y="71.9659">ControleurAntecedents</text><rect fill="#E2E2F0" height="33.0679" rx="2.5" ry="2.5" style="stroke:#181818;stroke-width:0.5;" width="170" x="185" y="728.4321"/><text fill="#000000" font-family="sans-serif" font-size="14" lengthAdjust="spacing" textLength="156" x="192" y="750.398">ControleurAntecedents</text><rect fill="#E2E2F0" height="33.0679" rx="2.5" ry="2.5" style="stroke:#181818;stroke-width:0.5;" width="134" x="459" y="728.4321"/><text fill="#000000" font-family="sans-serif" font-size="14" lengthAdjust="spacing" textLength="120" x="466" y="750.398">TachePrincipale: t</text><rect fill="#E2E2F0" height="33.0679" rx="2.5" ry="2.5" style="stroke:#181818;stroke-width:0.5;" width="64" x="603" y="50"/><text fill="#000000" font-family="sans-serif" font-size="14" lengthAdjust="spacing" textLength="50" x="610" y="71.9659">Modele</text><rect fill="#E2E2F0" height="33.0679" rx="2.5" ry="2.5" style="stroke:#181818;stroke-width:0.5;" width="64" x="603" y="728.4321"/><text fill="#000000" font-family="sans-serif" font-size="14" lengthAdjust="spacing" textLength="50" x="610" y="750.398">Modele</text><rect fill="#FFFFFF" height="620.3642" style="stroke:#181818;stroke-width:1.0;" width="10" x="265" y="100.0679"/><rect fill="#FFFFFF" height="31.706" style="stroke:#181818;stroke-width:1.0;" width="10" x="630" y="175.8419"/><rect fill="#FFFFFF" height="43.559" style="stroke:#181818;stroke-width:1.0;" width="10" x="630" y="277.8129"/><rect fill="#FFFFFF" height="14" style="stroke:#181818;stroke-width:1.0;" width="10" x="630" y="353.0779"/><rect fill="#FFFFFF" height="43.559" style="stroke:#181818;stroke-width:1.0;" width="10" x="630" y="412.637"/><rect fill="#FFFFFF" height="25.853" style="stroke:#181818;stroke-width:1.0;" width="10" x="630" y="526.461"/><rect fill="#FFFFFF" height="14" style="stroke:#181818;stroke-width:1.0;" width="10" x="630" y="584.0201"/><rect fill="#FFFFFF" height="17" style="stroke:#181818;stroke-width:1.0;" width="10" x="630" y="634.7261"/><rect fill="#FFFFFF" height="14" style="stroke:#181818;stroke-width:1.0;" width="10" x="630" y="683.4321"/><polygon fill="#181818" points="253,96.0679,263,100.0679,253,104.0679,257,100.0679" style="stroke:#181818;stroke-width:1.0;"/><line style="stroke:#181818;stroke-width:1.0;" x1="156.5" x2="259" y1="100.0679" y2="100.0679"/><polygon fill="#181818" points="447,127.7739,457,131.7739,447,135.7739,451,131.7739" style="stroke:#181818;stroke-width:1.0;"/><line style="stroke:#181818;stroke-width:1.0;" x1="275" x2="453" y1="131.7739" y2="131.7739"/><text fill="#000000" font-family="sans-serif" font-size="13" lengthAdjust="spacing" textLength="160" x="282" y="125.9649">recuperation Tache cliqu&#233;e</text><rect fill="#E2E2F0" height="33.0679" rx="2.5" ry="2.5" style="stroke:#181818;stroke-width:0.5;" width="134" x="459" y="108.0679"/><text fill="#000000" font-family="sans-serif" font-size="14" lengthAdjust="spacing" textLength="120" x="466" y="130.0339">TachePrincipale: t</text><polygon fill="#181818" points="618,171.8419,628,175.8419,618,179.8419,622,175.8419" style="stroke:#181818;stroke-width:1.0;"/><line style="stroke:#181818;stroke-width:1.0;" x1="275" x2="624" y1="175.8419" y2="175.8419"/><text fill="#000000" font-family="sans-serif" font-size="13" lengthAdjust="spacing" textLength="80" x="282" y="170.0328">.getListeAnt()</text><polygon fill="#181818" points="286,203.5479,276,207.5479,286,211.5479,282,207.5479" style="stroke:#181818;stroke-width:1.0;"/><line style="stroke:#181818;stroke-width:1.0;stroke-dasharray:2.0,2.0;" x1="280" x2="634" y1="207.5479" y2="207.5479"/><text fill="#000000" font-family="sans-serif" font-size="13" lengthAdjust="spacing" textLength="99" x="292" y="201.7389">listeAntecedents</text><path d="M10,222.5479 L73,222.5479 L73,232.2539 L63,242.2539 L10,242.2539 L10,222.5479 " fill="#EEEEEE" style="stroke:#000000;stroke-width:1.5;"/><rect fill="none" height="489.8842" style="stroke:#000000;stroke-width:1.5;" width="677" x="10" y="222.5479"/><text fill="#000000" font-family="sans-serif" font-size="13" font-weight="bold" lengthAdjust="spacing" textLength="18" x="25" y="237.4449">alt</text><text fill="#000000" font-family="sans-serif" font-size="11" font-weight="bold" lengthAdjust="spacing" textLength="144" x="88" y="236.3068">[listeAntecedents == null&#178;]</text><polygon fill="#181818" points="618,273.8129,628,277.8129,618,281.8129,622,277.8129" style="stroke:#181818;stroke-width:1.0;"/><line style="stroke:#181818;stroke-width:1.0;" x1="275" x2="624" y1="277.8129" y2="277.8129"/><text fill="#000000" font-family="sans-serif" font-size="13" lengthAdjust="spacing" textLength="189" x="282" y="272.0039">.setListeAnt(t.getAntecedents())</text><path d="M57,247.2539 L57,292.2539 L260,292.2539 L260,257.2539 L250,247.2539 L57,247.2539 " fill="#FEFFDD" style="stroke:#181818;stroke-width:0.5;"/><path d="M250,247.2539 L250,257.2539 L260,257.2539 L250,247.2539 " fill="#FEFFDD" style="stroke:#181818;stroke-width:0.5;"/><text fill="#000000" font-family="sans-serif" font-size="13" lengthAdjust="spacing" textLength="170" x="63" y="266.1509">si aucune tache selectionn&#233;e</text><text fill="#000000" font-family="sans-serif" font-size="13" lengthAdjust="spacing" textLength="182" x="63" y="283.8569">pour ajouter des d&#233;pendances</text><polygon fill="#181818" points="286,317.3719,276,321.3719,286,325.3719,282,321.3719" style="stroke:#181818;stroke-width:1.0;"/><line style="stroke:#181818;stroke-width:1.0;stroke-dasharray:2.0,2.0;" x1="280" x2="634" y1="321.3719" y2="321.3719"/><text fill="#000000" font-family="sans-serif" font-size="13" lengthAdjust="spacing" textLength="8" x="292" y="315.5629">lt</text><polygon fill="#181818" points="618,349.0779,628,353.0779,618,357.0779,622,353.0779" style="stroke:#181818;stroke-width:1.0;"/><line style="stroke:#181818;stroke-width:1.0;" x1="275" x2="624" y1="353.0779" y2="353.0779"/><text fill="#000000" font-family="sans-serif" font-size="13" lengthAdjust="spacing" textLength="98" x="282" y="347.2689">.setTacheCible(t)</text><polygon fill="#181818" points="286,363.0779,276,367.0779,286,371.0779,282,367.0779" style="stroke:#181818;stroke-width:1.0;"/><line style="stroke:#181818;stroke-width:1.0;stroke-dasharray:2.0,2.0;" x1="280" x2="634" y1="367.0779" y2="367.0779"/><line style="stroke:#000000;stroke-width:1.0;stroke-dasharray:2.0,2.0;" x1="10" x2="687" y1="376.0779" y2="376.0779"/><polygon fill="#181818" points="618,408.637,628,412.637,618,416.637,622,412.637" style="stroke:#181818;stroke-width:1.0;"/><line style="stroke:#181818;stroke-width:1.0;" x1="275" x2="624" y1="412.637" y2="412.637"/><text fill="#000000" font-family="sans-serif" font-size="13" lengthAdjust="spacing" textLength="95" x="282" y="406.828">.getTacheCible()</text><path d="M57,382.0779 L57,427.0779 L260,427.0779 L260,392.0779 L250,382.0779 L57,382.0779 " fill="#FEFFDD" style="stroke:#181818;stroke-width:0.5;"/><path d="M250,382.0779 L250,392.0779 L260,392.0779 L250,382.0779 " fill="#FEFFDD" style="stroke:#181818;stroke-width:0.5;"/><text fill="#000000" font-family="sans-serif" font-size="13" lengthAdjust="spacing" textLength="175" x="63" y="400.975">sinon tache d&#233;j&#224; selectionn&#233;e</text><text fill="#000000" font-family="sans-serif" font-size="13" lengthAdjust="spacing" textLength="182" x="63" y="418.681">pour ajouter des d&#233;pendances</text><polygon fill="#181818" points="286,452.196,276,456.196,286,460.196,282,456.196" style="stroke:#181818;stroke-width:1.0;"/><line style="stroke:#181818;stroke-width:1.0;stroke-dasharray:2.0,2.0;" x1="280" x2="634" y1="456.196" y2="456.196"/><text fill="#000000" font-family="sans-serif" font-size="13" lengthAdjust="spacing" textLength="12" x="292" y="450.387">t2</text><path d="M20,471.196 L83,471.196 L83,480.902 L73,490.902 L20,490.902 L20,471.196 " fill="#EEEEEE" style="stroke:#000000;stroke-width:1.5;"/><rect fill="none" height="234.2361" style="stroke:#000000;stroke-width:1.5;" width="657" x="20" y="471.196"/><text fill="#000000" font-family="sans-serif" font-size="13" font-weight="bold" lengthAdjust="spacing" textLength="18" x="35" y="486.093">alt</text><text fill="#000000" font-family="sans-serif" font-size="11" font-weight="bold" lengthAdjust="spacing" textLength="36" x="98" y="484.9549">[t==t2]</text><polygon fill="#181818" points="618,522.461,628,526.461,618,530.461,622,526.461" style="stroke:#181818;stroke-width:1.0;"/><line style="stroke:#181818;stroke-width:1.0;" x1="275" x2="624" y1="526.461" y2="526.461"/><text fill="#000000" font-family="sans-serif" font-size="13" lengthAdjust="spacing" textLength="115" x="282" y="520.652">.setTacheCible(null)</text><path d="M30,495.902 L30,540.902 L260,540.902 L260,505.902 L250,495.902 L30,495.902 " fill="#FEFFDD" style="stroke:#181818;stroke-width:0.5;"/><path d="M250,495.902 L250,505.902 L260,505.902 L250,495.902 " fill="#FEFFDD" style="stroke:#181818;stroke-width:0.5;"/><text fill="#000000" font-family="sans-serif" font-size="13" lengthAdjust="spacing" textLength="206" x="36" y="514.799">si reclick sur la meme tache = sortir</text><text fill="#000000" font-family="sans-serif" font-size="13" lengthAdjust="spacing" textLength="197" x="36" y="532.505">du mode de gestion dependance</text><polygon fill="#181818" points="286,548.314,276,552.314,286,556.314,282,552.314" style="stroke:#181818;stroke-width:1.0;"/><line style="stroke:#181818;stroke-width:1.0;stroke-dasharray:2.0,2.0;" x1="280" x2="634" y1="552.314" y2="552.314"/><polygon fill="#181818" points="618,580.0201,628,584.0201,618,588.0201,622,584.0201" style="stroke:#181818;stroke-width:1.0;"/><line style="stroke:#181818;stroke-width:1.0;" x1="275" x2="624" y1="584.0201" y2="584.0201"/><text fill="#000000" font-family="sans-serif" font-size="13" lengthAdjust="spacing" textLength="100" x="282" y="578.2111">.setListeAnt(null)</text><polygon fill="#181818" points="286,594.0201,276,598.0201,286,602.0201,282,598.0201" style="stroke:#181818;stroke-width:1.0;"/><line style="stroke:#181818;stroke-width:1.0;stroke-dasharray:2.0,2.0;" x1="280" x2="634" y1="598.0201" y2="598.0201"/><line style="stroke:#000000;stroke-width:1.0;stroke-dasharray:2.0,2.0;" x1="20" x2="677" y1="607.0201" y2="607.0201"/><polygon fill="#181818" points="618,630.7261,628,634.7261,618,638.7261,622,634.7261" style="stroke:#181818;stroke-width:1.0;"/><line style="stroke:#181818;stroke-width:1.0;" x1="275" x2="624" y1="634.7261" y2="634.7261"/><text fill="#000000" font-family="sans-serif" font-size="13" lengthAdjust="spacing" textLength="204" x="282" y="628.9171">.setTacheCible(t.getAntecedents())</text><path d="M66,613.0201 L66,640.0201 L260,640.0201 L260,623.0201 L250,613.0201 L66,613.0201 " fill="#FEFFDD" style="stroke:#181818;stroke-width:0.5;"/><path d="M250,613.0201 L250,623.0201 L260,623.0201 L250,613.0201 " fill="#FEFFDD" style="stroke:#181818;stroke-width:0.5;"/><text fill="#000000" font-family="sans-serif" font-size="13" lengthAdjust="spacing" textLength="173" x="72" y="631.9171">sinon click sur un autre tache</text><polygon fill="#181818" points="286,647.7261,276,651.7261,286,655.7261,282,651.7261" style="stroke:#181818;stroke-width:1.0;"/><line style="stroke:#181818;stroke-width:1.0;stroke-dasharray:2.0,2.0;" x1="280" x2="634" y1="651.7261" y2="651.7261"/><polygon fill="#181818" points="618,679.4321,628,683.4321,618,687.4321,622,683.4321" style="stroke:#181818;stroke-width:1.0;"/><line style="stroke:#181818;stroke-width:1.0;" x1="275" x2="624" y1="683.4321" y2="683.4321"/><text fill="#000000" font-family="sans-serif" font-size="13" lengthAdjust="spacing" textLength="98" x="282" y="677.6231">.setTacheCible(t)</text><polygon fill="#181818" points="286,693.4321,276,697.4321,286,701.4321,282,697.4321" style="stroke:#181818;stroke-width:1.0;"/><line style="stroke:#181818;stroke-width:1.0;stroke-dasharray:2.0,2.0;" x1="280" x2="634" y1="697.4321" y2="697.4321"/><!--SRC=[pLGnKiCm4EpzYfjKSH4AoWncXaaBCnJGqGZf20gAPAGJxw5DonF8nv2KnCJ4Jkp0P51X5xfRxUskn3WP2_SERPR5BumkOM8qMQFGsojDo56W9fSnJlAD4RPiGrZSOYmOt37-ZBTMQYvBfd0CD4ZxZPtnnAQECLZalaJBI1eDgGAuagz-kS1iFzwD4HXHpgP8rz8HXlrXddggCLOrUt0kHgCAIAr1gd5Jdy2VQAiZ5EqqG560zafzVgIIRkpT5dkAismL3lEyGj8cC53uH6Dm4fZdNYDG4im591u5r44rUD2byHROp7WANWjq89QB4hLWcgEh09j4wYWKLSKjwdGUFJa-aOyAXvJ_djeXNgWSzY0uhH5iyKA7uAvy23BFbkyzxVW3F-YyYnyniLGKMyN7k1JpdTSGwi4Czrb9_W8kpAmOp76-IMa1pbYIDYWYFCm3V60BKtJfwWlSI583RnEbNneEADF_ekwgS1AYjVWUTSVsF32DmVusq-lmw91Tk_cFJMf-KaxdaHRPvX_M5m00]--></g></svg>