<?xml version="1.0" encoding="us-ascii" standalone="no"?><svg xmlns="http://www.w3.org/2000/svg" xmlns:xlink="http://www.w3.org/1999/xlink" contentStyleType="text/css" height="791px" preserveAspectRatio="none" style="width:1123px;height:791px;background:#FFFFFF;" version="1.1" viewBox="0 0 1123 791" width="1123px" zoomAndPan="magnify"><defs/><g><rect fill="#FFFFFF" height="695.7083" style="stroke:#181818;stroke-width:1.0;" width="10" x="54.5" y="49.0679"/><rect fill="#FFFFFF" height="42.706" style="stroke:#181818;stroke-width:1.0;" width="10" x="59.5" y="144.186"/><rect fill="#FFFFFF" height="31.706" style="stroke:#181818;stroke-width:1.0;" width="10" x="438.5" y="72.7739"/><rect fill="#FFFFFF" height="510.1782" style="stroke:#181818;stroke-width:1.0;" width="10" x="438.5" y="225.598"/><rect fill="none" height="437.4722" style="stroke:#000000;stroke-width:1.5;" width="745" x="372.5" y="240.598"/><rect fill="none" height="282.6481" style="stroke:#000000;stroke-width:1.5;" width="725" x="382.5" y="388.4221"/><rect fill="none" height="140.8241" style="stroke:#000000;stroke-width:1.5;" width="705" x="392.5" y="478.5401"/><line style="stroke:#181818;stroke-width:0.5;stroke-dasharray:5.0,5.0;" x1="59" x2="59" y1="39.0679" y2="753.7762"/><line style="stroke:#181818;stroke-width:0.5;stroke-dasharray:5.0,5.0;" x1="443.5" x2="443.5" y1="39.0679" y2="753.7762"/><line style="stroke:#181818;stroke-width:0.5;stroke-dasharray:5.0,5.0;" x1="1048.5" x2="1048.5" y1="39.0679" y2="753.7762"/><rect fill="#E2E2F0" height="33.0679" rx="2.5" ry="2.5" style="stroke:#181818;stroke-width:0.5;" width="109" x="5" y="5"/><text fill="#000000" font-family="sans-serif" font-size="14" lengthAdjust="spacing" textLength="95" x="12" y="26.9659">VuePageGantt</text><rect fill="#E2E2F0" height="33.0679" rx="2.5" ry="2.5" style="stroke:#181818;stroke-width:0.5;" width="109" x="5" y="752.7762"/><text fill="#000000" font-family="sans-serif" font-size="14" lengthAdjust="spacing" textLength="95" x="12" y="774.7421">VuePageGantt</text><rect fill="#E2E2F0" height="33.0679" rx="2.5" ry="2.5" style="stroke:#181818;stroke-width:0.5;" width="82" x="402.5" y="5"/><text fill="#000000" font-family="sans-serif" font-size="14" lengthAdjust="spacing" textLength="68" x="409.5" y="26.9659">DiagGantt</text><rect fill="#E2E2F0" height="33.0679" rx="2.5" ry="2.5" style="stroke:#181818;stroke-width:0.5;" width="82" x="402.5" y="752.7762"/><text fill="#000000" font-family="sans-serif" font-size="14" lengthAdjust="spacing" textLength="68" x="409.5" y="774.7421">DiagGantt</text><rect fill="#E2E2F0" height="33.0679" rx="2.5" ry="2.5" style="stroke:#181818;stroke-width:0.5;" width="78" x="1009.5" y="5"/><text fill="#000000" font-family="sans-serif" font-size="14" lengthAdjust="spacing" textLength="64" x="1016.5" y="26.9659">HashMap</text><rect fill="#E2E2F0" height="33.0679" rx="2.5" ry="2.5" style="stroke:#181818;stroke-width:0.5;" width="78" x="1009.5" y="752.7762"/><text fill="#000000" font-family="sans-serif" font-size="14" lengthAdjust="spacing" textLength="64" x="1016.5" y="774.7421">HashMap</text><rect fill="#FFFFFF" height="695.7083" style="stroke:#181818;stroke-width:1.0;" width="10" x="54.5" y="49.0679"/><rect fill="#FFFFFF" height="42.706" style="stroke:#181818;stroke-width:1.0;" width="10" x="59.5" y="144.186"/><rect fill="#FFFFFF" height="31.706" style="stroke:#181818;stroke-width:1.0;" width="10" x="438.5" y="72.7739"/><rect fill="#FFFFFF" height="510.1782" style="stroke:#181818;stroke-width:1.0;" width="10" x="438.5" y="225.598"/><polygon fill="#181818" points="426.5,68.7739,436.5,72.7739,426.5,76.7739,430.5,72.7739" style="stroke:#181818;stroke-width:1.0;"/><line style="stroke:#181818;stroke-width:1.0;" x1="64.5" x2="432.5" y1="72.7739" y2="72.7739"/><text fill="#000000" font-family="sans-serif" font-size="13" lengthAdjust="spacing" textLength="287" x="71.5" y="66.9649">new DiagGantt(width, height, backgroundColor)</text><polygon fill="#181818" points="75.5,100.4799,65.5,104.4799,75.5,108.4799,71.5,104.4799" style="stroke:#181818;stroke-width:1.0;"/><line style="stroke:#181818;stroke-width:1.0;stroke-dasharray:2.0,2.0;" x1="69.5" x2="442.5" y1="104.4799" y2="104.4799"/><text fill="#000000" font-family="sans-serif" font-size="13" lengthAdjust="spacing" textLength="191" x="81.5" y="98.6709">Retourne instance de DiagGantt</text><line style="stroke:#181818;stroke-width:1.0;" x1="64.5" x2="111.5" y1="131.186" y2="131.186"/><line style="stroke:#181818;stroke-width:1.0;" x1="111.5" x2="111.5" y1="131.186" y2="144.186"/><line style="stroke:#181818;stroke-width:1.0;" x1="70.5" x2="111.5" y1="144.186" y2="144.186"/><polygon fill="#181818" points="80.5,140.186,70.5,144.186,80.5,148.186,76.5,144.186" style="stroke:#181818;stroke-width:1.0;"/><text fill="#000000" font-family="sans-serif" font-size="13" lengthAdjust="spacing" textLength="360" x="76.5" y="125.377">getTachesPrincipalesSansAntecedentTriParDateDebut(page)</text><line style="stroke:#181818;stroke-width:1.0;stroke-dasharray:2.0,2.0;" x1="69.5" x2="111.5" y1="185.892" y2="185.892"/><line style="stroke:#181818;stroke-width:1.0;stroke-dasharray:2.0,2.0;" x1="111.5" x2="111.5" y1="185.892" y2="198.892"/><line style="stroke:#181818;stroke-width:1.0;stroke-dasharray:2.0,2.0;" x1="64.5" x2="111.5" y1="198.892" y2="198.892"/><polygon fill="#181818" points="74.5,194.892,64.5,198.892,74.5,202.892,70.5,198.892" style="stroke:#181818;stroke-width:1.0;"/><text fill="#000000" font-family="sans-serif" font-size="13" lengthAdjust="spacing" textLength="206" x="76.5" y="180.083">tachesPrincipalesSansAntecedents</text><polygon fill="#181818" points="426.5,221.598,436.5,225.598,426.5,229.598,430.5,225.598" style="stroke:#181818;stroke-width:1.0;"/><line style="stroke:#181818;stroke-width:1.0;" x1="64.5" x2="432.5" y1="225.598" y2="225.598"/><text fill="#000000" font-family="sans-serif" font-size="13" lengthAdjust="spacing" textLength="258" x="71.5" y="219.789">draw(gc, tachesPrincipalesSansAntecedent)</text><path d="M372.5,240.598 L445.5,240.598 L445.5,250.304 L435.5,260.304 L372.5,260.304 L372.5,240.598 " fill="#EEEEEE" style="stroke:#000000;stroke-width:1.5;"/><rect fill="none" height="437.4722" style="stroke:#000000;stroke-width:1.5;" width="745" x="372.5" y="240.598"/><text fill="#000000" font-family="sans-serif" font-size="13" font-weight="bold" lengthAdjust="spacing" textLength="28" x="387.5" y="255.495">loop</text><text fill="#000000" font-family="sans-serif" font-size="11" font-weight="bold" lengthAdjust="spacing" textLength="333" x="460.5" y="254.3569">[pour chaque tache dans tachesPrincipalesSansAntecedent]</text><line style="stroke:#181818;stroke-width:1.0;" x1="448.5" x2="490.5" y1="284.01" y2="284.01"/><line style="stroke:#181818;stroke-width:1.0;" x1="490.5" x2="490.5" y1="284.01" y2="297.01"/><line style="stroke:#181818;stroke-width:1.0;" x1="449.5" x2="490.5" y1="297.01" y2="297.01"/><polygon fill="#181818" points="459.5,293.01,449.5,297.01,459.5,301.01,455.5,297.01" style="stroke:#181818;stroke-width:1.0;"/><text fill="#000000" font-family="sans-serif" font-size="13" lengthAdjust="spacing" textLength="326" x="455.5" y="278.201">dessinerTitreTache(gc, tache.getTitre(), coordYPinceau)</text><line style="stroke:#181818;stroke-width:1.0;" x1="448.5" x2="490.5" y1="328.716" y2="328.716"/><line style="stroke:#181818;stroke-width:1.0;" x1="490.5" x2="490.5" y1="328.716" y2="341.716"/><line style="stroke:#181818;stroke-width:1.0;" x1="449.5" x2="490.5" y1="341.716" y2="341.716"/><polygon fill="#181818" points="459.5,337.716,449.5,341.716,459.5,345.716,455.5,341.716" style="stroke:#181818;stroke-width:1.0;"/><text fill="#000000" font-family="sans-serif" font-size="13" lengthAdjust="spacing" textLength="507" x="455.5" y="322.907">dessinerTache(gc, randomColor, coordYPinceau, largeurTache, tache.getDateDebut())</text><polygon fill="#181818" points="1036.5,369.4221,1046.5,373.4221,1036.5,377.4221,1040.5,373.4221" style="stroke:#181818;stroke-width:1.0;"/><line style="stroke:#181818;stroke-width:1.0;" x1="448.5" x2="1042.5" y1="373.4221" y2="373.4221"/><text fill="#000000" font-family="sans-serif" font-size="13" lengthAdjust="spacing" textLength="434" x="455.5" y="367.6131">put(tache, new Point(coordXTache, coordYPinceau+HAUTEUR_TACHE/2))</text><path d="M382.5,388.4221 L455.5,388.4221 L455.5,398.1281 L445.5,408.1281 L382.5,408.1281 L382.5,388.4221 " fill="#EEEEEE" style="stroke:#000000;stroke-width:1.5;"/><rect fill="none" height="282.6481" style="stroke:#000000;stroke-width:1.5;" width="725" x="382.5" y="388.4221"/><text fill="#000000" font-family="sans-serif" font-size="13" font-weight="bold" lengthAdjust="spacing" textLength="28" x="397.5" y="403.3191">loop</text><text fill="#000000" font-family="sans-serif" font-size="11" font-weight="bold" lengthAdjust="spacing" textLength="351" x="470.5" y="402.181">[pour chaque tacheDependante dans tache.getDependances()]</text><polygon fill="#181818" points="1036.5,427.8341,1046.5,431.8341,1036.5,435.8341,1040.5,431.8341" style="stroke:#181818;stroke-width:1.0;"/><line style="stroke:#181818;stroke-width:1.0;" x1="448.5" x2="1042.5" y1="431.8341" y2="431.8341"/><text fill="#000000" font-family="sans-serif" font-size="13" lengthAdjust="spacing" textLength="188" x="455.5" y="426.0251">containsKey(tacheDependante)</text><polygon fill="#181818" points="459.5,459.5401,449.5,463.5401,459.5,467.5401,455.5,463.5401" style="stroke:#181818;stroke-width:1.0;"/><line style="stroke:#181818;stroke-width:1.0;stroke-dasharray:2.0,2.0;" x1="453.5" x2="1047.5" y1="463.5401" y2="463.5401"/><text fill="#000000" font-family="sans-serif" font-size="13" lengthAdjust="spacing" textLength="108" x="465.5" y="457.7311">Retourne boolean</text><path d="M392.5,478.5401 L455.5,478.5401 L455.5,488.2461 L445.5,498.2461 L392.5,498.2461 L392.5,478.5401 " fill="#EEEEEE" style="stroke:#000000;stroke-width:1.5;"/><rect fill="none" height="140.8241" style="stroke:#000000;stroke-width:1.5;" width="705" x="392.5" y="478.5401"/><text fill="#000000" font-family="sans-serif" font-size="13" font-weight="bold" lengthAdjust="spacing" textLength="18" x="407.5" y="493.4371">alt</text><text fill="#000000" font-family="sans-serif" font-size="11" font-weight="bold" lengthAdjust="spacing" textLength="255" x="470.5" y="492.299">[si tacheDependante n'est pas dans HashMap]</text><line style="stroke:#181818;stroke-width:1.0;" x1="448.5" x2="490.5" y1="521.9521" y2="521.9521"/><line style="stroke:#181818;stroke-width:1.0;" x1="490.5" x2="490.5" y1="521.9521" y2="534.9521"/><line style="stroke:#181818;stroke-width:1.0;" x1="449.5" x2="490.5" y1="534.9521" y2="534.9521"/><polygon fill="#181818" points="459.5,530.9521,449.5,534.9521,459.5,538.9521,455.5,534.9521" style="stroke:#181818;stroke-width:1.0;"/><text fill="#000000" font-family="sans-serif" font-size="13" lengthAdjust="spacing" textLength="400" x="455.5" y="516.1431">dessinerTitreTache(gc, tacheDependante.getTitre(), coordYPinceau)</text><line style="stroke:#181818;stroke-width:1.0;" x1="448.5" x2="490.5" y1="566.6582" y2="566.6582"/><line style="stroke:#181818;stroke-width:1.0;" x1="490.5" x2="490.5" y1="566.6582" y2="579.6582"/><line style="stroke:#181818;stroke-width:1.0;" x1="449.5" x2="490.5" y1="579.6582" y2="579.6582"/><polygon fill="#181818" points="459.5,575.6582,449.5,579.6582,459.5,583.6582,455.5,579.6582" style="stroke:#181818;stroke-width:1.0;"/><text fill="#000000" font-family="sans-serif" font-size="13" lengthAdjust="spacing" textLength="581" x="455.5" y="560.8492">dessinerTache(gc, randomColor, coordYPinceau, largeurTache, tacheDependante.getDateDebut())</text><polygon fill="#181818" points="1036.5,607.3642,1046.5,611.3642,1036.5,615.3642,1040.5,611.3642" style="stroke:#181818;stroke-width:1.0;"/><line style="stroke:#181818;stroke-width:1.0;" x1="448.5" x2="1042.5" y1="611.3642" y2="611.3642"/><text fill="#000000" font-family="sans-serif" font-size="13" lengthAdjust="spacing" textLength="520" x="455.5" y="605.5552">put(tacheDependante, new Point(coordXTache, coordYPinceau + HAUTEUR_TACHE / 2))</text><line style="stroke:#181818;stroke-width:1.0;" x1="448.5" x2="490.5" y1="650.0702" y2="650.0702"/><line style="stroke:#181818;stroke-width:1.0;" x1="490.5" x2="490.5" y1="650.0702" y2="663.0702"/><line style="stroke:#181818;stroke-width:1.0;" x1="449.5" x2="490.5" y1="663.0702" y2="663.0702"/><polygon fill="#181818" points="459.5,659.0702,449.5,663.0702,459.5,667.0702,455.5,663.0702" style="stroke:#181818;stroke-width:1.0;"/><text fill="#000000" font-family="sans-serif" font-size="13" lengthAdjust="spacing" textLength="374" x="455.5" y="644.2612">dessinerFleche(gc, pDepart, pArrivee, largeurTacheAntecedent)</text><line style="stroke:#181818;stroke-width:1.0;" x1="448.5" x2="490.5" y1="708.7762" y2="708.7762"/><line style="stroke:#181818;stroke-width:1.0;" x1="490.5" x2="490.5" y1="708.7762" y2="721.7762"/><line style="stroke:#181818;stroke-width:1.0;" x1="449.5" x2="490.5" y1="721.7762" y2="721.7762"/><polygon fill="#181818" points="459.5,717.7762,449.5,721.7762,459.5,725.7762,455.5,721.7762" style="stroke:#181818;stroke-width:1.0;"/><text fill="#000000" font-family="sans-serif" font-size="13" lengthAdjust="spacing" textLength="128" x="455.5" y="702.9672">dessinerAxeDates(gc)</text><polygon fill="#181818" points="75.5,731.7762,65.5,735.7762,75.5,739.7762,71.5,735.7762" style="stroke:#181818;stroke-width:1.0;"/><line style="stroke:#181818;stroke-width:1.0;stroke-dasharray:2.0,2.0;" x1="69.5" x2="442.5" y1="735.7762" y2="735.7762"/><!--SRC=[dPHFRvmm4CNlV8gv5PJTHienXqeectQbg19AITMUgbap0gl4TkqXstxx6jZbto9O1Oc3mVDxpyzZes3vXapmlQ84S_g2YZaO3c3x2NOIytPm3ugE_JWyoeoB3HGayu8tS43nExUwKjc3BhMDWW3F0brDqDEsdZtIkeTdObrPHI2LOrI281lMPZG332uCJw0vSOgY89TOgOGqM9BxXih5YabGHefJAnEqEy_TqQ7YqFZgg3U_aCwb6l2obXkkOaHU33wpU0npiLd3HtEP1wNM1eoF5aI1VofgAP3vqZLW0FuPRDh45Zad5TbKigKcvTxanphu-diORK1eRREVYHSXhA8heHtFeihqQzDL4zG6IhGvLUtaWNA_cz6Ct1vTyHMD5pD-1hUrTNCdMYeE6uaV9-H8xsOVlwIFBy-_qlXX_tXxv-4DVJxX7HbIFcKUPjsuE_qGvCBMte95eHMZFn5Fz2-SOFlQy_Jj9CpkI1sqBWbLLu0bWvCNFjK7SWm6NUluXEsgtjqDlSHQNrmlyzx-67kvw9ILxUWwfiTSrpjm0wFkWLku6qXwLd3rsZ-NT5wyyJxG-llNnDRADwBnceTtmrccVeDLZVWlrTauhn8jtDkpr_9_]--></g></svg>