<?xml version="1.0" encoding="us-ascii" standalone="no"?><svg xmlns="http://www.w3.org/2000/svg" xmlns:xlink="http://www.w3.org/1999/xlink" contentStyleType="text/css" height="451px" preserveAspectRatio="none" style="width:602px;height:451px;background:#FFFFFF;" version="1.1" viewBox="0 0 602 451" width="602px" zoomAndPan="magnify"><defs/><g><line style="stroke:#181818;stroke-width:0.5;stroke-dasharray:5.0,5.0;" x1="59" x2="59" y1="39.0679" y2="413.4221"/><line style="stroke:#181818;stroke-width:0.5;stroke-dasharray:5.0,5.0;" x1="280.5" x2="280.5" y1="39.0679" y2="413.4221"/><line style="stroke:#181818;stroke-width:0.5;stroke-dasharray:5.0,5.0;" x1="372.5" x2="372.5" y1="39.0679" y2="413.4221"/><line style="stroke:#181818;stroke-width:0.5;stroke-dasharray:5.0,5.0;" x1="475.5" x2="475.5" y1="39.0679" y2="413.4221"/><line style="stroke:#181818;stroke-width:0.5;stroke-dasharray:5.0,5.0;" x1="572.5" x2="572.5" y1="39.0679" y2="413.4221"/><rect fill="#E2E2F0" height="33.0679" rx="2.5" ry="2.5" style="stroke:#181818;stroke-width:0.5;" width="109" x="5" y="5"/><text fill="#000000" font-family="sans-serif" font-size="14" lengthAdjust="spacing" textLength="95" x="12" y="26.9659">VuePageGantt</text><rect fill="#E2E2F0" height="33.0679" rx="2.5" ry="2.5" style="stroke:#181818;stroke-width:0.5;" width="109" x="5" y="412.4221"/><text fill="#000000" font-family="sans-serif" font-size="14" lengthAdjust="spacing" textLength="95" x="12" y="434.388">VuePageGantt</text><rect fill="#E2E2F0" height="33.0679" rx="2.5" ry="2.5" style="stroke:#181818;stroke-width:0.5;" width="102" x="229.5" y="5"/><text fill="#000000" font-family="sans-serif" font-size="14" lengthAdjust="spacing" textLength="88" x="236.5" y="26.9659">ModeleOllert</text><rect fill="#E2E2F0" height="33.0679" rx="2.5" ry="2.5" style="stroke:#181818;stroke-width:0.5;" width="102" x="229.5" y="412.4221"/><text fill="#000000" font-family="sans-serif" font-size="14" lengthAdjust="spacing" textLength="88" x="236.5" y="434.388">ModeleOllert</text><rect fill="#E2E2F0" height="33.0679" rx="2.5" ry="2.5" style="stroke:#181818;stroke-width:0.5;" width="62" x="341.5" y="5"/><text fill="#000000" font-family="sans-serif" font-size="14" lengthAdjust="spacing" textLength="48" x="348.5" y="26.9659">Canvas</text><rect fill="#E2E2F0" height="33.0679" rx="2.5" ry="2.5" style="stroke:#181818;stroke-width:0.5;" width="62" x="341.5" y="412.4221"/><text fill="#000000" font-family="sans-serif" font-size="14" lengthAdjust="spacing" textLength="48" x="348.5" y="434.388">Canvas</text><rect fill="#E2E2F0" height="33.0679" rx="2.5" ry="2.5" style="stroke:#181818;stroke-width:0.5;" width="125" x="413.5" y="5"/><text fill="#000000" font-family="sans-serif" font-size="14" lengthAdjust="spacing" textLength="111" x="420.5" y="26.9659">GraphicsContext</text><rect fill="#E2E2F0" height="33.0679" rx="2.5" ry="2.5" style="stroke:#181818;stroke-width:0.5;" width="125" x="413.5" y="412.4221"/><text fill="#000000" font-family="sans-serif" font-size="14" lengthAdjust="spacing" textLength="111" x="420.5" y="434.388">GraphicsContext</text><rect fill="#E2E2F0" height="33.0679" rx="2.5" ry="2.5" style="stroke:#181818;stroke-width:0.5;" width="48" x="548.5" y="5"/><text fill="#000000" font-family="sans-serif" font-size="14" lengthAdjust="spacing" textLength="34" x="555.5" y="26.9659">HBox</text><rect fill="#E2E2F0" height="33.0679" rx="2.5" ry="2.5" style="stroke:#181818;stroke-width:0.5;" width="48" x="548.5" y="412.4221"/><text fill="#000000" font-family="sans-serif" font-size="14" lengthAdjust="spacing" textLength="34" x="555.5" y="434.388">HBox</text><polygon fill="#181818" points="268.5,68.7739,278.5,72.7739,268.5,76.7739,272.5,72.7739" style="stroke:#181818;stroke-width:1.0;"/><line style="stroke:#181818;stroke-width:1.0;" x1="59.5" x2="274.5" y1="72.7739" y2="72.7739"/><text fill="#000000" font-family="sans-serif" font-size="13" lengthAdjust="spacing" textLength="94" x="66.5" y="66.9649">actualiser(sujet)</text><polygon fill="#181818" points="70.5,100.4799,60.5,104.4799,70.5,108.4799,66.5,104.4799" style="stroke:#181818;stroke-width:1.0;"/><line style="stroke:#181818;stroke-width:1.0;stroke-dasharray:2.0,2.0;" x1="64.5" x2="279.5" y1="104.4799" y2="104.4799"/><text fill="#000000" font-family="sans-serif" font-size="13" lengthAdjust="spacing" textLength="197" x="76.5" y="98.6709">Retourne les donn&#233;es du mod&#232;le</text><polygon fill="#181818" points="360.5,132.186,370.5,136.186,360.5,140.186,364.5,136.186" style="stroke:#181818;stroke-width:1.0;"/><line style="stroke:#181818;stroke-width:1.0;" x1="59.5" x2="366.5" y1="136.186" y2="136.186"/><text fill="#000000" font-family="sans-serif" font-size="13" lengthAdjust="spacing" textLength="144" x="66.5" y="130.377">getGraphicsContext2D()</text><polygon fill="#181818" points="70.5,163.892,60.5,167.892,70.5,171.892,66.5,167.892" style="stroke:#181818;stroke-width:1.0;"/><line style="stroke:#181818;stroke-width:1.0;stroke-dasharray:2.0,2.0;" x1="64.5" x2="371.5" y1="167.892" y2="167.892"/><text fill="#000000" font-family="sans-serif" font-size="13" lengthAdjust="spacing" textLength="159" x="76.5" y="162.083">Retourne GraphicsContext</text><line style="stroke:#181818;stroke-width:1.0;" x1="59.5" x2="101.5" y1="199.598" y2="199.598"/><line style="stroke:#181818;stroke-width:1.0;" x1="101.5" x2="101.5" y1="199.598" y2="212.598"/><line style="stroke:#181818;stroke-width:1.0;" x1="60.5" x2="101.5" y1="212.598" y2="212.598"/><polygon fill="#181818" points="70.5,208.598,60.5,212.598,70.5,216.598,66.5,212.598" style="stroke:#181818;stroke-width:1.0;"/><text fill="#000000" font-family="sans-serif" font-size="13" lengthAdjust="spacing" textLength="138" x="66.5" y="193.789">draw(GraphicsContext)</text><polygon fill="#181818" points="464,240.304,474,244.304,464,248.304,468,244.304" style="stroke:#181818;stroke-width:1.0;"/><line style="stroke:#181818;stroke-width:1.0;" x1="59.5" x2="470" y1="244.304" y2="244.304"/><text fill="#000000" font-family="sans-serif" font-size="13" lengthAdjust="spacing" textLength="74" x="66.5" y="238.495">setFill(Color)</text><polygon fill="#181818" points="70.5,254.304,60.5,258.304,70.5,262.304,66.5,258.304" style="stroke:#181818;stroke-width:1.0;"/><line style="stroke:#181818;stroke-width:1.0;stroke-dasharray:2.0,2.0;" x1="64.5" x2="475" y1="258.304" y2="258.304"/><polygon fill="#181818" points="464,286.01,474,290.01,464,294.01,468,290.01" style="stroke:#181818;stroke-width:1.0;"/><line style="stroke:#181818;stroke-width:1.0;" x1="59.5" x2="470" y1="290.01" y2="290.01"/><text fill="#000000" font-family="sans-serif" font-size="13" lengthAdjust="spacing" textLength="372" x="66.5" y="284.201">fillText(text, x, y) // R&#233;p&#233;t&#233; pour chaque nom de t&#226;che et dur&#233;e</text><polygon fill="#181818" points="70.5,300.01,60.5,304.01,70.5,308.01,66.5,304.01" style="stroke:#181818;stroke-width:1.0;"/><line style="stroke:#181818;stroke-width:1.0;stroke-dasharray:2.0,2.0;" x1="64.5" x2="475" y1="304.01" y2="304.01"/><polygon fill="#181818" points="464,331.716,474,335.716,464,339.716,468,335.716" style="stroke:#181818;stroke-width:1.0;"/><line style="stroke:#181818;stroke-width:1.0;" x1="59.5" x2="470" y1="335.716" y2="335.716"/><text fill="#000000" font-family="sans-serif" font-size="13" lengthAdjust="spacing" textLength="325" x="66.5" y="329.907">fillRect(x, y, width, height) // R&#233;p&#233;t&#233; pour chaque t&#226;che</text><polygon fill="#181818" points="70.5,345.716,60.5,349.716,70.5,353.716,66.5,349.716" style="stroke:#181818;stroke-width:1.0;"/><line style="stroke:#181818;stroke-width:1.0;stroke-dasharray:2.0,2.0;" x1="64.5" x2="475" y1="349.716" y2="349.716"/><polygon fill="#181818" points="560.5,377.4221,570.5,381.4221,560.5,385.4221,564.5,381.4221" style="stroke:#181818;stroke-width:1.0;"/><line style="stroke:#181818;stroke-width:1.0;" x1="59.5" x2="566.5" y1="381.4221" y2="381.4221"/><text fill="#000000" font-family="sans-serif" font-size="13" lengthAdjust="spacing" textLength="74" x="66.5" y="375.6131">add(Canvas)</text><polygon fill="#181818" points="70.5,391.4221,60.5,395.4221,70.5,399.4221,66.5,395.4221" style="stroke:#181818;stroke-width:1.0;"/><line style="stroke:#181818;stroke-width:1.0;stroke-dasharray:2.0,2.0;" x1="64.5" x2="571.5" y1="395.4221" y2="395.4221"/><!--SRC=[hPB1JiGW48RlVOevGjBD9XxtuC4QToz6qvZU2OobXeKAWrjVnvDz3bvCwdfGDjbeucs0_vl_Pw2BU2zwt0fB1AjBk7KA3TuPWvvW0q9I56O8w5c8JqYy-Y5OPQBxtc43BPABtY8O3A2SjMbUYWXxfzAxmQeh71jXNqJ8P8-qzMBKWmoDiuGJNLmpNdsTdxCgi1EBWbDU75Z1y1Ee46Gk8DqCnh366UTvLGhAXB_e-9ZRFUIIBUiQfXfUEQpNqAPvJ3Eb6SPyGv1QF4S4w_QW42YzIOs0bAVgytJ_AqYBajWIeOR3e4ZNe77eDPr9T8pozm2xApSjlqifTdnUNdrkbU07]--></g></svg>