<?xml version="1.0" encoding="us-ascii" standalone="no"?><svg xmlns="http://www.w3.org/2000/svg" xmlns:xlink="http://www.w3.org/1999/xlink" contentStyleType="text/css" height="402px" preserveAspectRatio="none" style="width:349px;height:402px;background:#FFFFFF;" version="1.1" viewBox="0 0 349 402" width="349px" zoomAndPan="magnify"><defs/><g><rect fill="#FFFFFF" height="31.706" style="stroke:#181818;stroke-width:1.0;" width="10" x="18.5" y="131.7739"/><rect fill="#FFFFFF" height="200.892" style="stroke:#181818;stroke-width:1.0;" width="10" x="139.5" y="100.0679"/><rect fill="#FFFFFF" height="14" style="stroke:#181818;stroke-width:1.0;" width="10" x="295" y="265.9599"/><rect fill="none" height="109.4799" style="stroke:#000000;stroke-width:1.5;" width="296" x="47.5" y="178.4799"/><line style="stroke:#181818;stroke-width:0.5;stroke-dasharray:5.0,5.0;" x1="23" x2="23" y1="84.0679" y2="318.9599"/><line style="stroke:#181818;stroke-width:0.5;stroke-dasharray:5.0,5.0;" x1="144.5" x2="144.5" y1="84.0679" y2="318.9599"/><line style="stroke:#181818;stroke-width:0.5;stroke-dasharray:5.0,5.0;" x1="299.5" x2="299.5" y1="230.2199" y2="318.9599"/><text fill="#000000" font-family="sans-serif" font-size="14" lengthAdjust="spacing" textLength="31" x="5" y="79.9659">User</text><ellipse cx="23.5" cy="13.5" fill="#E2E2F0" rx="8" ry="8" style="stroke:#181818;stroke-width:0.5;"/><path d="M23.5,21.5 L23.5,48.5 M10.5,29.5 L36.5,29.5 M23.5,48.5 L10.5,63.5 M23.5,48.5 L36.5,63.5 " fill="none" style="stroke:#181818;stroke-width:0.5;"/><text fill="#000000" font-family="sans-serif" font-size="14" lengthAdjust="spacing" textLength="31" x="5" y="332.9258">User</text><ellipse cx="23.5" cy="345.5278" fill="#E2E2F0" rx="8" ry="8" style="stroke:#181818;stroke-width:0.5;"/><path d="M23.5,353.5278 L23.5,380.5278 M10.5,361.5278 L36.5,361.5278 M23.5,380.5278 L10.5,395.5278 M23.5,380.5278 L36.5,395.5278 " fill="none" style="stroke:#181818;stroke-width:0.5;"/><rect fill="#E2E2F0" height="33.0679" rx="2.5" ry="2.5" style="stroke:#181818;stroke-width:0.5;" width="174" x="57.5" y="50"/><text fill="#000000" font-family="sans-serif" font-size="14" lengthAdjust="spacing" textLength="160" x="64.5" y="71.9659">ControleurModifierTitre</text><rect fill="#E2E2F0" height="33.0679" rx="2.5" ry="2.5" style="stroke:#181818;stroke-width:0.5;" width="174" x="57.5" y="317.9599"/><text fill="#000000" font-family="sans-serif" font-size="14" lengthAdjust="spacing" textLength="160" x="64.5" y="339.9258">ControleurModifierTitre</text><rect fill="#E2E2F0" height="33.0679" rx="2.5" ry="2.5" style="stroke:#181818;stroke-width:0.5;" width="67" x="266.5" y="317.9599"/><text fill="#000000" font-family="sans-serif" font-size="14" lengthAdjust="spacing" textLength="53" x="273.5" y="339.9258">Tache: t</text><rect fill="#FFFFFF" height="31.706" style="stroke:#181818;stroke-width:1.0;" width="10" x="18.5" y="131.7739"/><rect fill="#FFFFFF" height="200.892" style="stroke:#181818;stroke-width:1.0;" width="10" x="139.5" y="100.0679"/><rect fill="#FFFFFF" height="14" style="stroke:#181818;stroke-width:1.0;" width="10" x="295" y="265.9599"/><polygon fill="#181818" points="127.5,96.0679,137.5,100.0679,127.5,104.0679,131.5,100.0679" style="stroke:#181818;stroke-width:1.0;"/><line style="stroke:#181818;stroke-width:1.0;" x1="23.5" x2="133.5" y1="100.0679" y2="100.0679"/><polygon fill="#181818" points="39.5,127.7739,29.5,131.7739,39.5,135.7739,35.5,131.7739" style="stroke:#181818;stroke-width:1.0;"/><line style="stroke:#181818;stroke-width:1.0;" x1="33.5" x2="138.5" y1="131.7739" y2="131.7739"/><text fill="#000000" font-family="sans-serif" font-size="13" lengthAdjust="spacing" textLength="92" x="45.5" y="125.9649">saise utilisateur</text><polygon fill="#181818" points="127.5,159.4799,137.5,163.4799,127.5,167.4799,131.5,163.4799" style="stroke:#181818;stroke-width:1.0;"/><line style="stroke:#181818;stroke-width:1.0;stroke-dasharray:2.0,2.0;" x1="23.5" x2="133.5" y1="163.4799" y2="163.4799"/><text fill="#000000" font-family="sans-serif" font-size="13" lengthAdjust="spacing" textLength="28" x="30.5" y="157.6709">nom</text><path d="M47.5,178.4799 L110.5,178.4799 L110.5,188.186 L100.5,198.186 L47.5,198.186 L47.5,178.4799 " fill="#EEEEEE" style="stroke:#000000;stroke-width:1.5;"/><rect fill="none" height="109.4799" style="stroke:#000000;stroke-width:1.5;" width="296" x="47.5" y="178.4799"/><text fill="#000000" font-family="sans-serif" font-size="13" font-weight="bold" lengthAdjust="spacing" textLength="18" x="62.5" y="193.377">alt</text><text fill="#000000" font-family="sans-serif" font-size="11" font-weight="bold" lengthAdjust="spacing" textLength="69" x="125.5" y="192.2389">[nom valide]</text><polygon fill="#181818" points="254.5,217.892,264.5,221.892,254.5,225.892,258.5,221.892" style="stroke:#181818;stroke-width:1.0;"/><line style="stroke:#181818;stroke-width:1.0;" x1="149.5" x2="260.5" y1="221.892" y2="221.892"/><text fill="#000000" font-family="sans-serif" font-size="13" lengthAdjust="spacing" textLength="93" x="156.5" y="216.083">retrouver tache</text><rect fill="#E2E2F0" height="33.0679" rx="2.5" ry="2.5" style="stroke:#181818;stroke-width:0.5;" width="67" x="266.5" y="198.186"/><text fill="#000000" font-family="sans-serif" font-size="14" lengthAdjust="spacing" textLength="53" x="273.5" y="220.1519">Tache: t</text><polygon fill="#181818" points="283,261.9599,293,265.9599,283,269.9599,287,265.9599" style="stroke:#181818;stroke-width:1.0;"/><line style="stroke:#181818;stroke-width:1.0;" x1="149.5" x2="289" y1="265.9599" y2="265.9599"/><text fill="#000000" font-family="sans-serif" font-size="13" lengthAdjust="spacing" textLength="89" x="156.5" y="260.1509">t.setTitre(nom)</text><polygon fill="#181818" points="160.5,275.9599,150.5,279.9599,160.5,283.9599,156.5,279.9599" style="stroke:#181818;stroke-width:1.0;"/><line style="stroke:#181818;stroke-width:1.0;stroke-dasharray:2.0,2.0;" x1="154.5" x2="299" y1="279.9599" y2="279.9599"/><polygon fill="#181818" points="132.5,296.9599,142.5,300.9599,132.5,304.9599,136.5,300.9599" style="stroke:#181818;stroke-width:1.0;"/><line style="stroke:#181818;stroke-width:1.0;stroke-dasharray:2.0,2.0;" x1="23.5" x2="138.5" y1="300.9599" y2="300.9599"/><!--SRC=[ZP4n3iCW34LdV0gKgHtI0w2gI-TkwG4Gk2eI3P8nENzDLAN9G9I5mV__fszZ7IVIpum4zT7zJT_Jo9GY5dea7ru1QGXCQC0w3fDbR3a0L4Efs8etEjkGKHSECMH15GArOESMJSIrxt-CCNr0UTpcX1EvIdgoCNW4fHnXbRl1kZSQpPtCTWh-VKOJYgjCSX2kGpYUv4j6dfMJb3bBSEbvg4XTSsDSBRgQIoCSFS0EHitNWbM-zMzV]--></g></svg>