<?xml version="1.0" encoding="us-ascii" standalone="no"?><svg xmlns="http://www.w3.org/2000/svg" xmlns:xlink="http://www.w3.org/1999/xlink" contentStyleType="text/css" height="479.7px" preserveAspectRatio="none" style="width:598px;height:479px;background:#FFFFFF;" version="1.1" viewBox="0 0 598 479" width="598.5px" zoomAndPan="magnify"><defs/><g><rect fill="#FFFFFF" height="28.5354" style="stroke:#181818;stroke-width:0.9;" width="9" x="16.65" y="134.532"/><rect fill="#FFFFFF" height="289.5444" style="stroke:#181818;stroke-width:0.9;" width="9" x="149.85" y="105.9965"/><rect fill="#FFFFFF" height="69.6708" style="stroke:#181818;stroke-width:0.9;" width="9" x="445.05" y="255.2993"/><rect fill="#FFFFFF" height="28.5354" style="stroke:#181818;stroke-width:0.9;" width="9" x="540" y="267.8993"/><rect fill="#FFFFFF" height="28.5354" style="stroke:#181818;stroke-width:0.9;" width="9" x="540" y="353.5056"/><rect fill="none" height="212.6736" style="stroke:#000000;stroke-width:1.35;" width="551.25" x="42.3" y="176.5674"/><line style="stroke:#181818;stroke-width:0.45;stroke-dasharray:5.0,5.0;" x1="20.7" x2="20.7" y1="75.6611" y2="404.541"/><line style="stroke:#181818;stroke-width:0.45;stroke-dasharray:5.0,5.0;" x1="153.9" x2="153.9" y1="75.6611" y2="404.541"/><line style="stroke:#181818;stroke-width:0.45;stroke-dasharray:5.0,5.0;" x1="348.75" x2="348.75" y1="223.1333" y2="404.541"/><line style="stroke:#181818;stroke-width:0.45;stroke-dasharray:5.0,5.0;" x1="449.55" x2="449.55" y1="75.6611" y2="404.541"/><line style="stroke:#181818;stroke-width:0.45;stroke-dasharray:5.0,5.0;" x1="544.05" x2="544.05" y1="75.6611" y2="404.541"/><text fill="#000000" font-family="sans-serif" font-size="12.6" lengthAdjust="spacing" textLength="27.9" x="4.5" y="71.9693">User</text><ellipse cx="21.15" cy="12.15" fill="#E2E2F0" rx="7.2" ry="7.2" style="stroke:#181818;stroke-width:0.45;"/><path d="M21.15,19.35 L21.15,43.65 M9.45,26.55 L32.85,26.55 M21.15,43.65 L9.45,57.15 M21.15,43.65 L32.85,57.15 " fill="none" style="stroke:#181818;stroke-width:0.45;"/><text fill="#000000" font-family="sans-serif" font-size="12.6" lengthAdjust="spacing" textLength="27.9" x="4.5" y="417.1103">User</text><ellipse cx="21.15" cy="428.4521" fill="#E2E2F0" rx="7.2" ry="7.2" style="stroke:#181818;stroke-width:0.45;"/><path d="M21.15,435.6521 L21.15,459.9521 M9.45,442.8521 L32.85,442.8521 M21.15,459.9521 L9.45,473.4521 M21.15,459.9521 L32.85,473.4521 " fill="none" style="stroke:#181818;stroke-width:0.45;"/><rect fill="#E2E2F0" height="29.7611" rx="2.25" ry="2.25" style="stroke:#181818;stroke-width:0.45;" width="206.1" x="51.3" y="45"/><text fill="#000000" font-family="sans-serif" font-size="12.6" lengthAdjust="spacing" textLength="193.5" x="57.6" y="64.7693">ControleurSupprimerListeTache</text><rect fill="#E2E2F0" height="29.7611" rx="2.25" ry="2.25" style="stroke:#181818;stroke-width:0.45;" width="206.1" x="51.3" y="403.641"/><text fill="#000000" font-family="sans-serif" font-size="12.6" lengthAdjust="spacing" textLength="193.5" x="57.6" y="423.4103">ControleurSupprimerListeTache</text><rect fill="#E2E2F0" height="29.7611" rx="2.25" ry="2.25" style="stroke:#181818;stroke-width:0.45;" width="91.8" x="302.85" y="403.641"/><text fill="#000000" font-family="sans-serif" font-size="12.6" lengthAdjust="spacing" textLength="79.2" x="309.15" y="423.4103">ListeTache: lt</text><rect fill="#E2E2F0" height="29.7611" rx="2.25" ry="2.25" style="stroke:#181818;stroke-width:0.45;" width="91.8" x="403.65" y="45"/><text fill="#000000" font-family="sans-serif" font-size="12.6" lengthAdjust="spacing" textLength="79.2" x="409.95" y="64.7693">ModeleOllert</text><rect fill="#E2E2F0" height="29.7611" rx="2.25" ry="2.25" style="stroke:#181818;stroke-width:0.45;" width="91.8" x="403.65" y="403.641"/><text fill="#000000" font-family="sans-serif" font-size="12.6" lengthAdjust="spacing" textLength="79.2" x="409.95" y="423.4103">ModeleOllert</text><rect fill="#E2E2F0" height="29.7611" rx="2.25" ry="2.25" style="stroke:#181818;stroke-width:0.45;" width="80.1" x="504.45" y="45"/><text fill="#000000" font-family="sans-serif" font-size="12.6" lengthAdjust="spacing" textLength="67.5" x="510.75" y="64.7693">Page: page</text><rect fill="#E2E2F0" height="29.7611" rx="2.25" ry="2.25" style="stroke:#181818;stroke-width:0.45;" width="80.1" x="504.45" y="403.641"/><text fill="#000000" font-family="sans-serif" font-size="12.6" lengthAdjust="spacing" textLength="67.5" x="510.75" y="423.4103">Page: page</text><rect fill="#FFFFFF" height="28.5354" style="stroke:#181818;stroke-width:0.9;" width="9" x="16.65" y="134.532"/><rect fill="#FFFFFF" height="289.5444" style="stroke:#181818;stroke-width:0.9;" width="9" x="149.85" y="105.9965"/><rect fill="#FFFFFF" height="69.6708" style="stroke:#181818;stroke-width:0.9;" width="9" x="445.05" y="255.2993"/><rect fill="#FFFFFF" height="28.5354" style="stroke:#181818;stroke-width:0.9;" width="9" x="540" y="267.8993"/><rect fill="#FFFFFF" height="28.5354" style="stroke:#181818;stroke-width:0.9;" width="9" x="540" y="353.5056"/><polygon fill="#181818" points="139.05,102.3965,148.05,105.9965,139.05,109.5965,142.65,105.9965" style="stroke:#181818;stroke-width:0.9;"/><line style="stroke:#181818;stroke-width:0.9;" x1="21.15" x2="144.45" y1="105.9965" y2="105.9965"/><text fill="#000000" font-family="sans-serif" font-size="11.7" lengthAdjust="spacing" textLength="46.8" x="27.45" y="100.7684">.handle()</text><polygon fill="#181818" points="35.55,130.932,26.55,134.532,35.55,138.132,31.95,134.532" style="stroke:#181818;stroke-width:0.9;"/><line style="stroke:#181818;stroke-width:0.9;" x1="30.15" x2="148.95" y1="134.532" y2="134.532"/><text fill="#000000" font-family="sans-serif" font-size="11.7" lengthAdjust="spacing" textLength="107.1" x="40.95" y="129.3039">demande validation</text><polygon fill="#181818" points="139.05,159.4674,148.05,163.0674,139.05,166.6674,142.65,163.0674" style="stroke:#181818;stroke-width:0.9;"/><line style="stroke:#181818;stroke-width:0.9;stroke-dasharray:2.0,2.0;" x1="21.15" x2="144.45" y1="163.0674" y2="163.0674"/><text fill="#000000" font-family="sans-serif" font-size="11.7" lengthAdjust="spacing" textLength="53.1" x="27.45" y="157.8393">validation</text><path d="M42.3,176.5674 L99,176.5674 L99,185.3028 L90,194.3028 L42.3,194.3028 L42.3,176.5674 " fill="#EEEEEE" style="stroke:#000000;stroke-width:1.35;"/><rect fill="none" height="212.6736" style="stroke:#000000;stroke-width:1.35;" width="551.25" x="42.3" y="176.5674"/><text fill="#000000" font-family="sans-serif" font-size="11.7" font-weight="bold" lengthAdjust="spacing" textLength="16.2" x="55.8" y="189.9747">alt</text><text fill="#000000" font-family="sans-serif" font-size="9.9" font-weight="bold" lengthAdjust="spacing" textLength="89.1" x="112.5" y="188.9504">[validation = true]</text><polygon fill="#181818" points="292.05,212.0382,301.05,215.6382,292.05,219.2382,295.65,215.6382" style="stroke:#181818;stroke-width:0.9;"/><line style="stroke:#181818;stroke-width:0.9;" x1="158.85" x2="297.45" y1="215.6382" y2="215.6382"/><text fill="#000000" font-family="sans-serif" font-size="11.7" lengthAdjust="spacing" textLength="122.4" x="165.15" y="210.4101">retrouver la ListeTache</text><rect fill="#E2E2F0" height="29.7611" rx="2.25" ry="2.25" style="stroke:#181818;stroke-width:0.45;" width="91.8" x="302.85" y="194.3028"/><text fill="#000000" font-family="sans-serif" font-size="12.6" lengthAdjust="spacing" textLength="79.2" x="309.15" y="214.0721">ListeTache: lt</text><polygon fill="#181818" points="434.25,251.6993,443.25,255.2993,434.25,258.8993,437.85,255.2993" style="stroke:#181818;stroke-width:0.9;"/><line style="stroke:#181818;stroke-width:0.9;" x1="158.85" x2="439.65" y1="255.2993" y2="255.2993"/><text fill="#000000" font-family="sans-serif" font-size="11.7" lengthAdjust="spacing" textLength="63.9" x="165.15" y="250.0712">.getDonne()</text><polygon fill="#181818" points="529.2,264.2993,538.2,267.8993,529.2,271.4993,532.8,267.8993" style="stroke:#181818;stroke-width:0.9;"/><line style="stroke:#181818;stroke-width:0.9;" x1="454.05" x2="534.6" y1="267.8993" y2="267.8993"/><polygon fill="#181818" points="463.95,292.8347,454.95,296.4347,463.95,300.0347,460.35,296.4347" style="stroke:#181818;stroke-width:0.9;"/><line style="stroke:#181818;stroke-width:0.9;stroke-dasharray:2.0,2.0;" x1="458.55" x2="543.6" y1="296.4347" y2="296.4347"/><text fill="#000000" font-family="sans-serif" font-size="11.7" lengthAdjust="spacing" textLength="27" x="469.35" y="291.2066">page</text><polygon fill="#181818" points="168.75,321.3702,159.75,324.9702,168.75,328.5702,165.15,324.9702" style="stroke:#181818;stroke-width:0.9;"/><line style="stroke:#181818;stroke-width:0.9;stroke-dasharray:2.0,2.0;" x1="163.35" x2="448.65" y1="324.9702" y2="324.9702"/><text fill="#000000" font-family="sans-serif" font-size="11.7" lengthAdjust="spacing" textLength="27" x="174.15" y="319.7421">page</text><polygon fill="#181818" points="529.2,349.9056,538.2,353.5056,529.2,357.1056,532.8,353.5056" style="stroke:#181818;stroke-width:0.9;"/><line style="stroke:#181818;stroke-width:0.9;" x1="158.85" x2="534.6" y1="353.5056" y2="353.5056"/><text fill="#000000" font-family="sans-serif" font-size="11.7" lengthAdjust="spacing" textLength="129.6" x="165.15" y="348.2775">.supprimerListeTache(lt)</text><polygon fill="#181818" points="168.75,378.441,159.75,382.041,168.75,385.641,165.15,382.041" style="stroke:#181818;stroke-width:0.9;"/><line style="stroke:#181818;stroke-width:0.9;stroke-dasharray:2.0,2.0;" x1="163.35" x2="543.6" y1="382.041" y2="382.041"/><text fill="#000000" font-family="sans-serif" font-size="11.7" lengthAdjust="spacing" textLength="27" x="174.15" y="376.8129">page</text><!--SRC=[XPF1QiCm38RFzbE8dBf3-W1XssKxRcpGxW54B5g3QmT5oVFF3cbhjrkTWmEM_b-_FZ3s4XX-HcAT3cXVuIruuU1eujqq36nFn1zs5DfZVwGEjaVqnj7cIMClTaQXnmgjrSDw6fb6Ts3e5Aq9PdJMeDZWjRhCM29Md9xRThNABGoTJM8KT98LuGM49z9AzKnfIfDlwgI9bMhuMqq7J54npH6dGoX8rDq-Wo57NyuHIuHz87aFtYVSwWeZRqgkAhzOCdtZ8QOPujbqgU4YpIjtoWIma2w_r7Q5M3fKLqgMvKwhPUPukquTUP5nEzvtRPmKn8hGi7xrv7_0E8l_8wB86wspQkLrw5y0]--></g></svg>